<svg xmlns="http://www.w3.org/2000/svg" width="600" height="155.463"><g data-name="Grupo 194" fill="#fff"><path data-name="Caminho 5571" d="M241.46 46.88h-14.685v-9.171h12.015v-7.372h-12.015v-8.591h13.756l1.1-7.6h-25.6v40.341h25.424z"/><path data-name="Caminho 5572" d="M289.753 34.168q0-11.376-5.8-15.7t-15.381-4.323h-12.079v40.341h12.887q20.373-.002 20.373-20.318zm-22.521-12.364h2.728a9.8 9.8 0 014.788 1.045 6.769 6.769 0 012.9 3.744 22.321 22.321 0 011.015 7.575q0 7.082-2.118 9.867t-6.53 2.787h-2.786z"/><path data-name="Caminho 5573" d="M334.651 48.447a15.219 15.219 0 001.828-7.487V14.143h-10.796v26.468a9.056 9.056 0 01-1.278 5.341 4.835 4.835 0 01-4.179 1.742 4.954 4.954 0 01-4.208-1.712q-1.306-1.712-1.306-5.369V14.145h-10.738v26.817q0 6.734 4.121 10.651t12.132 3.918a19.328 19.328 0 008.939-1.886 12.742 12.742 0 005.485-5.198z"/><path data-name="Caminho 5574" d="M359.551 53.061a19.646 19.646 0 0010.015 2.466 17.349 17.349 0 007.227-1.508 19.148 19.148 0 005.717-3.889l-4.759-6.037a21.314 21.314 0 01-3.861 2.466 8.857 8.857 0 01-3.859.842 6.9 6.9 0 01-6.066-3.25q-2.177-3.251-2.176-9.926t2.148-9.984a6.755 6.755 0 015.978-3.308 9.324 9.324 0 013.6.7 16.551 16.551 0 013.482 2.032l5.05-5.978a19.513 19.513 0 00-5.746-3.425 19.456 19.456 0 00-6.908-1.161 18.852 18.852 0 00-9.751 2.5 16.99 16.99 0 00-6.617 7.255 25.175 25.175 0 00-2.38 11.377 26.346 26.346 0 002.322 11.58 16.371 16.371 0 006.584 7.248z"/><path data-name="Caminho 5575" d="M403.634 14.143l-11.956 40.341h11.144l1.8-8.242h10.681l1.8 8.242h11.377l-11.957-40.341zm2.671 24.437l3.656-16.775 3.656 16.775z"/><path data-name="Caminho 5576" d="M467.048 17.538q-4.5-3.4-12.624-3.4h-13.815v40.341h10.738v-13h4.121q7.371 0 11.725-3.569t4.354-10.42q0-6.555-4.499-9.952zm-8.01 14.772a6.252 6.252 0 01-4.557 1.509h-3.134V21.688h2.9q6.326 0 6.327 5.862.003 3.253-1.536 4.761z"/><path data-name="Caminho 5577" d="M496.564 14.143h-10.736v40.341h25.075l1.161-8.359h-15.5z"/><path data-name="Caminho 5578" d="M533.655 14.143l-11.957 40.341h11.144l1.8-8.242h10.68l1.8 8.242h11.376l-11.956-40.341zm2.67 24.437l3.657-16.775 3.656 16.775z"/><path data-name="Caminho 5579" d="M588.623 14.143l-6.733 17.123-6.676-17.123h-11.725l12.886 25.365v14.975h10.738V39.449l12.886-25.307z"/><path data-name="Caminho 5580" d="M148.275 0H77.731L.001 77.732l77.732 77.732 45.534-45.534h64.284V39.275A39.275 39.275 0 00148.275 0zM77.732 140.657L14.811 77.736l62.921-62.92v95.118h30.723zm99.345-41.2h-43.338l21.724-21.725-67.262-67.259h60.07a28.835 28.835 0 0128.8 28.8z"/><path data-name="Caminho 5581" d="M228.243 106.75a6.209 6.209 0 01-2.591.5 5.571 5.571 0 01-4.644-2.271q-1.75-2.271-1.75-7.05 0-4.913 1.767-7.135a5.666 5.666 0 014.661-2.22 7.011 7.011 0 014.476 1.725l1.75-2.053a10.534 10.534 0 00-2.911-1.75 10.045 10.045 0 00-3.516-.538 8.958 8.958 0 00-4.88 1.379 9.443 9.443 0 00-3.466 4.088 15.159 15.159 0 00-1.279 6.512 15.672 15.672 0 001.229 6.511 9.182 9.182 0 003.433 4.106 9.194 9.194 0 005.031 1.4 9.54 9.54 0 003.87-.74 8.64 8.64 0 002.76-1.851l-1.582-2.019a13.618 13.618 0 01-2.358 1.406z"/><path data-name="Caminho 5582" d="M240.593 107.39a1 1 0 01-.857-.337 1.808 1.808 0 01-.253-1.076V84.304l-3.1.37v21.369a3.964 3.964 0 00.992 2.878 3.594 3.594 0 002.709 1.026 5.04 5.04 0 002.457-.606l-.808-2.154a3.051 3.051 0 01-1.14.203z"/><path data-name="Retângulo 332" d="M247.257 91.808h3.096v17.734h-3.096z"/><path data-name="Caminho 5583" d="M248.771 83.294a2.1 2.1 0 00-1.548.605 2.056 2.056 0 00-.606 1.515 2 2 0 00.606 1.5 2.127 2.127 0 001.548.588 2.172 2.172 0 001.581-.588 2 2 0 00.605-1.5 2.055 2.055 0 00-.605-1.515 2.141 2.141 0 00-1.581-.605z"/><path data-name="Caminho 5584" d="M268.424 93.793a6.537 6.537 0 00-4.98-2.389 5.971 5.971 0 00-3.7 1.195 7.5 7.5 0 00-2.423 3.315 13.058 13.058 0 00-.841 4.846 11.361 11.361 0 001.767 6.7 5.7 5.7 0 004.93 2.49 5.806 5.806 0 002.878-.723 6.264 6.264 0 002.171-2.036v9.154l3.1.37v-24.9h-2.669zm-.2 11.072a7.573 7.573 0 01-1.952 1.968 4.344 4.344 0 01-2.423.657 3.322 3.322 0 01-2.992-1.683 9.9 9.9 0 01-1.043-5.115 9.4 9.4 0 011.127-5.116 3.594 3.594 0 013.181-1.716 4.317 4.317 0 012.238.588 6.728 6.728 0 011.868 1.733z"/><path data-name="Caminho 5585" d="M288.647 104.461q-1.85 3.062-4.442 3.062a2.59 2.59 0 01-2.086-.757 4.02 4.02 0 01-.64-2.574V91.809h-3.1v12.72a5.665 5.665 0 001.312 4 4.716 4.716 0 003.634 1.413 6.3 6.3 0 003.2-.757 6.754 6.754 0 002.322-2.406l.236 2.76h2.659v-17.73h-3.1z"/><path data-name="Caminho 5586" d="M305.069 91.404a6.483 6.483 0 00-3.92 1.212 7.675 7.675 0 00-2.557 3.348 12.617 12.617 0 00-.892 4.9 9.931 9.931 0 002.069 6.658 7.181 7.181 0 005.771 2.423 9.8 9.8 0 006.192-2.223l-1.346-1.85a9.484 9.484 0 01-2.254 1.177 7.187 7.187 0 01-2.356.37 4.289 4.289 0 01-3.3-1.38 6.909 6.909 0 01-1.48-4.307h11.307q.067-.808.067-1.582a9.93 9.93 0 00-1.883-6.428 6.576 6.576 0 00-5.418-2.318zm4.24 8.043h-8.312q.335-5.585 4.139-5.586a3.676 3.676 0 013.13 1.379 6.563 6.563 0 011.043 4.005z"/><path data-name="Caminho 5587" d="M334.01 91.404a6.483 6.483 0 00-3.92 1.212 7.675 7.675 0 00-2.559 3.348 12.617 12.617 0 00-.892 4.9 9.931 9.931 0 002.07 6.663 7.18 7.18 0 005.771 2.423 9.8 9.8 0 006.193-2.228l-1.342-1.847a9.484 9.484 0 01-2.254 1.177 7.187 7.187 0 01-2.356.37 4.289 4.289 0 01-3.3-1.38 6.9 6.9 0 01-1.48-4.307h11.304q.067-.808.067-1.582a9.93 9.93 0 00-1.881-6.431 6.576 6.576 0 00-5.421-2.318zm4.24 8.043h-8.312q.335-5.585 4.139-5.586a3.676 3.676 0 013.13 1.379 6.563 6.563 0 011.043 4.005z"/><path data-name="Caminho 5588" d="M369.173 107.001a2.771 2.771 0 01-.37-1.6v-8.11a5.86 5.86 0 00-1.548-4.358 6.4 6.4 0 00-4.677-1.531 17.854 17.854 0 00-6.126 1.212l.774 2.254a15.634 15.634 0 014.779-.942 4.108 4.108 0 012.792.808 3.446 3.446 0 01.909 2.692v1.312h-2.722a9.525 9.525 0 00-5.771 1.515 5.081 5.081 0 00-2.04 4.342 5.171 5.171 0 001.515 3.871 5.666 5.666 0 004.139 1.481 5.947 5.947 0 005.283-2.658 3.54 3.54 0 001.246 1.885 4.732 4.732 0 002.221.774l.706-2.154a2.253 2.253 0 01-1.11-.793zm-3.467-2.136a4.621 4.621 0 01-4.168 2.757 3.026 3.026 0 01-2.288-.807 3.325 3.325 0 01-.774-2.389q0-3.635 4.913-3.634h2.322z"/><path data-name="Caminho 5589" d="M384.151 91.404a6.146 6.146 0 00-2.894.724 6.782 6.782 0 00-2.356 2.069l-.236-2.389h-2.658v24.9l3.1-.37v-8.416a5.718 5.718 0 004.644 2.019 5.945 5.945 0 005.149-2.557 11.381 11.381 0 001.816-6.73 12.461 12.461 0 00-1.585-6.832 5.517 5.517 0 00-4.98-2.418zm-1.144 16.018a4.528 4.528 0 01-2.221-.555 4.67 4.67 0 01-1.683-1.6v-8.645a7.6 7.6 0 011.885-1.985 4 4 0 012.389-.774q4 0 4 6.8.004 6.759-4.37 6.759z"/><path data-name="Caminho 5590" d="M401.717 92.413a6.725 6.725 0 00-1.919 3l-.3-3.6h-2.658v17.729h3.1v-10.13a9.007 9.007 0 011.582-3.768 3.291 3.291 0 012.659-1.212 6.368 6.368 0 011.547.2l.572-3.029a7.189 7.189 0 00-1.75-.2 4.281 4.281 0 00-2.833 1.01z"/><path data-name="Caminho 5591" d="M415.749 91.404a6.483 6.483 0 00-3.92 1.212 7.675 7.675 0 00-2.557 3.348 12.617 12.617 0 00-.892 4.9 9.931 9.931 0 002.07 6.663 7.18 7.18 0 005.771 2.423 9.8 9.8 0 006.192-2.221l-1.346-1.85a9.483 9.483 0 01-2.254 1.177 7.187 7.187 0 01-2.356.37 4.289 4.289 0 01-3.3-1.38 6.909 6.909 0 01-1.48-4.307h11.307q.067-.808.067-1.582a9.93 9.93 0 00-1.884-6.435 6.576 6.576 0 00-5.418-2.318zm4.24 8.043h-8.312q.335-5.585 4.139-5.586a3.676 3.676 0 013.13 1.379 6.563 6.563 0 011.043 4.005z"/><path data-name="Caminho 5592" d="M437.185 91.404a6.041 6.041 0 00-3.079.807 7.015 7.015 0 00-2.339 2.222l-.269-2.625h-2.659v17.734h3.1V96.956a8.386 8.386 0 012.019-2.321 4.036 4.036 0 012.49-.808 2.686 2.686 0 012.087.774 3.932 3.932 0 01.706 2.658v12.283h3.1v-12.72a5.559 5.559 0 00-1.363-3.971 4.948 4.948 0 00-3.793-1.447z"/><path data-name="Caminho 5593" d="M460.036 93.592a6.368 6.368 0 00-4.779-2.188 5.972 5.972 0 00-3.7 1.195 7.5 7.5 0 00-2.423 3.315 13.058 13.058 0 00-.841 4.846 11.365 11.365 0 001.767 6.7 5.7 5.7 0 004.93 2.49 5.753 5.753 0 002.927-.757 6.418 6.418 0 002.188-2.1l.3 2.457h2.726V84.67l-3.1-.37zm0 11.278a7.574 7.574 0 01-1.953 1.968 4.344 4.344 0 01-2.423.657 3.323 3.323 0 01-2.995-1.682 9.9 9.9 0 01-1.043-5.115 9.394 9.394 0 011.127-5.116 3.592 3.592 0 013.18-1.716 4.315 4.315 0 012.238.588 6.739 6.739 0 011.869 1.729z"/><path data-name="Caminho 5594" d="M482.682 107.001a2.772 2.772 0 01-.37-1.6v-8.11a5.86 5.86 0 00-1.548-4.358 6.4 6.4 0 00-4.678-1.531 17.848 17.848 0 00-6.125 1.212l.774 2.254a15.637 15.637 0 014.779-.942 4.11 4.11 0 012.793.808 3.449 3.449 0 01.908 2.692v1.312h-2.726a9.525 9.525 0 00-5.771 1.515 5.083 5.083 0 00-2.036 4.34 5.171 5.171 0 001.515 3.871 5.666 5.666 0 004.139 1.481 5.947 5.947 0 005.283-2.658 3.544 3.544 0 001.246 1.885 4.732 4.732 0 002.221.774l.706-2.154a2.256 2.256 0 01-1.11-.791zm-3.467-2.136a4.621 4.621 0 01-4.172 2.758 3.026 3.026 0 01-2.288-.807 3.325 3.325 0 01-.774-2.389q0-3.635 4.913-3.634h2.322z"/></g></svg>